<!DOCTYPE svg PUBLIC "-//W3C//DTD SVG 20010904//EN" "http://www.w3.org/TR/2001/REC-SVG-20010904/DTD/svg10.dtd">
<svg version="1.0" xmlns="http://www.w3.org/2000/svg" width="415px" height="414px" viewBox="0 0 4150 4140" preserveAspectRatio="xMidYMid meet">
<g id="layer101" fill="#6f3bb2" stroke="none">
 <path d="M1890 4079 c-367 -38 -761 -200 -1040 -429 -425 -348 -686 -831 -740 -1369 -58 -586 143 -1164 554 -1590 602 -623 1544 -789 2321 -407 629 309 1046 909 1115 1605 52 532 -113 1073 -452 1476 -193 230 -398 391 -663 521 -335 164 -716 231 -1095 193z"/>
 </g>
<g id="layer102" fill="#ffffff" stroke="none">
 <path d="M971 3567 c-54 -32 -67 -107 -26 -155 32 -39 72 -48 119 -28 67 28 82 121 26 171 -25 22 -89 29 -119 12z"/>
 <path d="M3253 3561 c-69 -42 -61 -146 14 -177 46 -20 86 -10 118 28 41 49 28 126 -26 154 -38 19 -68 18 -106 -5z"/>
 <path d="M1224 3431 c-3 -9 -13 -33 -24 -54 l-19 -38 42 -18 c23 -10 66 -28 95 -41 57 -24 74 -45 66 -77 -6 -23 -42 -41 -234 -116 l-135 -53 3 -61 c3 -42 -1 -70 -12 -92 l-17 -31 274 0 273 0 17 29 c57 97 187 211 300 264 106 51 195 71 312 71 169 0 316 -52 453 -158 60 -48 154 -155 169 -193 4 -10 69 -13 279 -13 l275 0 -17 31 c-11 22 -15 50 -12 92 l3 60 -170 68 c-93 38 -177 77 -187 89 -24 30 -11 60 36 80 164 72 159 69 146 85 -7 8 -18 32 -25 52 -16 46 48 49 -513 -28 l-432 -59 -188 25 c-103 14 -270 37 -372 51 -392 53 -381 52 -386 35z"/>
 <path d="M2015 3094 c-209 -51 -385 -221 -452 -439 -16 -54 -18 -99 -18 -425 l0 -365 620 0 620 0 0 365 c0 326 -2 371 -18 425 -68 220 -244 389 -457 439 -80 19 -215 19 -295 0z m305 -226 c109 -54 191 -167 206 -285 5 -44 3 -57 -11 -73 -17 -19 -33 -20 -350 -20 -317 0 -333 1 -350 20 -24 26 -14 107 24 186 34 73 121 155 194 183 78 31 212 26 287 -11z m-420 -535 c0 -80 23 -103 102 -103 l58 0 0 -50 0 -50 -52 0 c-43 0 -57 -5 -80 -27 -24 -23 -28 -35 -28 -80 l0 -53 -50 0 -50 0 0 57 c0 78 -23 103 -97 103 l-53 0 0 50 0 50 57 0 c78 0 93 15 93 97 l0 63 50 0 50 0 0 -57z m630 -3 c0 -80 19 -100 95 -100 l55 0 0 -50 0 -50 -52 0 c-75 0 -98 -24 -98 -102 l0 -58 -50 0 -50 0 0 53 c0 45 -4 57 -28 80 -23 22 -37 27 -80 27 l-52 0 0 50 0 50 57 0 c80 0 103 23 103 102 l0 58 50 0 50 0 0 -60z"/>
 <path d="M2078 2785 c-75 -27 -140 -97 -163 -172 l-6 -23 256 0 256 0 -6 23 c-13 43 -56 107 -88 131 -70 53 -171 70 -249 41z"/>
 <path d="M743 3025 c-32 -32 -35 -40 -30 -76 10 -77 81 -118 146 -85 67 35 78 122 20 170 -45 39 -92 35 -136 -9z"/>
 <path d="M3452 3035 c-38 -32 -48 -72 -28 -118 30 -72 120 -86 170 -26 38 45 35 92 -8 135 -43 43 -90 46 -134 9z"/>
 <path d="M743 2505 c-32 -32 -35 -40 -30 -76 10 -74 74 -113 140 -85 72 30 86 120 26 170 -45 39 -92 35 -136 -9z"/>
 <path d="M3452 2515 c-39 -32 -48 -72 -28 -119 17 -41 72 -72 111 -62 39 10 74 45 81 82 18 97 -89 162 -164 99z"/>
 <path d="M1399 2315 c-76 -41 -85 -153 -18 -209 55 -47 59 -40 59 99 0 69 -3 125 -7 125 -5 -1 -20 -7 -34 -15z"/>
 <path d="M2890 2205 c0 -139 4 -146 59 -100 52 44 61 114 23 173 -13 20 -60 52 -77 52 -3 0 -5 -56 -5 -125z"/>
 <path d="M710 2038 c0 -123 5 -252 11 -288 32 -199 168 -385 348 -478 122 -63 178 -77 321 -76 108 0 136 4 206 27 105 35 213 106 293 193 50 54 77 98 127 201 35 73 64 135 64 137 0 3 -192 6 -428 8 l-427 3 -65 32 c-94 46 -138 97 -234 273 l-84 155 -45 6 c-25 4 -54 12 -66 18 l-21 12 0 -223z m216 -245 c16 -99 57 -177 133 -254 36 -37 73 -69 81 -71 11 -3 8 -14 -14 -51 l-27 -47 -46 32 c-91 66 -166 166 -204 272 -20 58 -40 172 -31 181 3 3 26 5 51 5 l47 0 10 -67z m379 -389 c35 -6 37 -8 31 -37 -3 -16 -6 -38 -6 -49 0 -18 -4 -20 -47 -13 -27 4 -52 10 -56 14 -13 13 14 103 29 97 7 -3 29 -8 49 -12z"/>
 <path d="M3597 2248 c-10 -5 -39 -13 -64 -16 l-45 -7 -84 -155 c-135 -247 -205 -300 -406 -308 l-108 -5 0 -134 c0 -137 -13 -226 -51 -350 -11 -36 -17 -68 -14 -71 15 -15 240 -6 300 12 195 59 346 191 432 374 53 114 64 193 61 449 -3 211 -4 221 -21 211z m-85 -443 c-4 -59 -40 -167 -75 -228 -35 -59 -110 -141 -162 -177 l-43 -30 -28 47 c-21 37 -24 48 -13 51 8 3 44 34 80 71 77 78 117 154 132 251 l12 71 50 -3 50 -3 -3 -50z m-413 -431 c7 -26 8 -50 4 -55 -4 -4 -29 -10 -55 -14 -44 -7 -48 -5 -48 13 0 11 -3 33 -6 49 -6 28 -4 30 38 40 23 6 46 11 49 12 4 0 12 -20 18 -45z"/>
 <path d="M2121 1598 c-88 -180 -138 -250 -237 -332 -132 -109 -274 -164 -444 -173 l-105 -6 -161 -111 -160 -111 0 -75 c1 -41 -3 -85 -7 -97 l-8 -23 464 0 c501 0 559 4 706 54 268 92 493 327 579 607 28 90 42 200 42 325 l0 104 -295 0 -295 0 -79 -162z m181 -637 c33 -46 35 -43 -79 -100 -142 -71 -209 -83 -515 -88 l-268 -5 0 56 0 56 249 0 c293 0 354 9 481 74 47 23 90 43 95 44 6 1 22 -16 37 -37z m-972 -136 l0 -55 -50 0 -50 0 0 55 0 55 50 0 50 0 0 -55z"/>
 <path d="M775 871 c-33 -14 -56 -47 -62 -90 -5 -37 -2 -44 31 -77 33 -33 40 -36 77 -31 23 3 52 15 65 28 80 75 -9 211 -111 170z"/>
 </g>

</svg>