<svg xmlns="http://www.w3.org/2000/svg" xmlns:xlink="http://www.w3.org/1999/xlink" x="0px" y="0px" width="32px" height="64px" viewBox="0 0 32 64"><g transform="translate(-16,-16)"><rect x="0" y="0" width="64" height="64" rx="34" ry="34" fill="#bcbcbc"></rect><g transform="translate(11.5 11.5) scale(0.64)"><path data-color="color-2" fill="#ffffff" d="M55.082,44.713C50.396,43.02,42.587,41,32,41s-18.396,2.02-23.082,3.713
	C5.378,45.993,3,49.393,3,53.174V62c0,0.552,0.448,1,1,1h56c0.552,0,1-0.448,1-1v-8.826C61,49.393,58.622,45.993,55.082,44.713z"></path>
<path fill="#ffffff" d="M32,35c8.271,0,15-6.729,15-15v-4c0-8.271-6.729-15-15-15S17,7.729,17,16v4C17,28.271,23.729,35,32,35z"></path></g></g><g transform="translate(-16,16)"><rect x="0" y="0" width="64" height="64" rx="34" ry="34" fill="#bcbcbc"></rect><g transform="translate(11.5 11.5) scale(0.64)"><path data-color="color-2" fill="#3f51b5" d="M55.082,44.713C50.396,43.02,42.587,41,32,41s-18.396,2.02-23.082,3.713
	C5.378,45.993,3,49.393,3,53.174V62c0,0.552,0.448,1,1,1h56c0.552,0,1-0.448,1-1v-8.826C61,49.393,58.622,45.993,55.082,44.713z"></path>
<path fill="#3f51b5" d="M32,35c8.271,0,15-6.729,15-15v-4c0-8.271-6.729-15-15-15S17,7.729,17,16v4C17,28.271,23.729,35,32,35z"></path></g></g></svg>