<?xml version="1.0" standalone="no"?>
<!DOCTYPE svg PUBLIC "-//W3C//DTD SVG 20010904//EN"
 "http://www.w3.org/TR/2001/REC-SVG-20010904/DTD/svg10.dtd">
<svg version="1.0" xmlns="http://www.w3.org/2000/svg"
 width="234.000000pt" height="233.000000pt" viewBox="0 0 234.000000 233.000000"
 preserveAspectRatio="xMidYMid meet">

<g transform="translate(0.000000,233.000000) scale(0.100000,-0.100000)"
fill="#000000" stroke="none">
<path d="M1045 2259 c-291 -37 -572 -202 -754 -444 -67 -89 -154 -267 -181
-370 -69 -265 -43 -530 75 -771 184 -378 521 -602 960 -639 185 -16 462 65
652 191 246 162 419 424 484 729 19 86 16 332 -4 422 -130 575 -658 953 -1232
882z m390 -107 c292 -82 517 -259 655 -515 83 -153 120 -302 120 -482 0 -257
-90 -499 -252 -677 l-43 -48 -55 33 c-30 18 -118 60 -195 92 -94 40 -153 71
-179 95 -37 35 -39 39 -44 113 -4 71 -2 80 21 115 29 41 67 126 67 148 0 8 15
31 33 51 19 21 39 53 45 72 16 45 15 120 -2 150 -9 17 -11 34 -5 55 5 17 15
78 24 135 18 122 9 197 -33 275 -30 55 -91 111 -130 121 -15 3 -47 20 -70 37
-59 41 -120 58 -211 58 -230 -1 -377 -102 -420 -291 -15 -62 -13 -211 3 -294
12 -59 12 -74 0 -97 -30 -58 -12 -160 37 -213 15 -16 37 -57 48 -90 12 -33 34
-79 51 -103 26 -37 30 -51 30 -113 0 -118 -20 -139 -226 -224 -60 -26 -142
-64 -182 -85 l-72 -39 -66 82 c-78 99 -165 270 -196 387 -20 73 -23 110 -23
255 0 202 17 280 95 440 137 283 384 484 685 559 94 23 111 24 270 21 110 -3
169 -9 220 -23z"/>
</g>
</svg>
